<?xml version="1.0" encoding="UTF-8"?>
<svg data-bbox="153.94 86.79 489.33 618.41" viewBox="0 0 800 800" xmlns="http://www.w3.org/2000/svg" data-type="ugc">
    <g>
        <path d="M397.21 578.32V705.2l178.85-205.3c41.65-43.87 67.21-103.17 67.21-168.44 0-135.13-109.54-244.67-244.67-244.67S153.94 196.34 153.94 331.46c0 134.57 108.64 243.76 243 244.66" fill="#0085ff" stroke="#0085ff" stroke-width="20" stroke-linecap="round" stroke-linejoin="round" stroke-miterlimit="10"/>
        <path d="M317.65 562.42C513.57 400.31 593.88 257.38 545.53 135.8c59.36 44.64 97.74 115.67 97.74 195.66 0 65.27-25.56 124.57-67.21 168.44L397.21 705.2V578.32" fill="#007bff" stroke="#007bff" stroke-width="20" stroke-linecap="round" stroke-linejoin="round" stroke-miterlimit="10"/>
        <path d="M396.94 576.12c-27.77-.19-54.44-5-79.28-13.7" fill="#007bff" stroke="#007bff" stroke-width="20" stroke-linecap="round" stroke-linejoin="round" stroke-miterlimit="10"/>
        <path d="M491.96 218.07c7.43 11.73 11.14 25.77 11.14 42.12 0 16.85-3.75 30.39-11.24 40.63-4.19 5.74-10.36 10.98-18.51 15.73 12.39 5.12 21.73 13.23 28.04 24.34 6.3 11.11 9.46 24.59 9.46 40.44 0 16.35-3.6 31.02-10.81 44-4.58 8.61-10.31 15.85-17.19 21.72-7.75 6.74-16.89 11.36-27.43 13.85-10.53 2.5-21.97 3.74-34.3 3.74H311.75V188.68h117.3c29.6.5 50.57 10.3 62.91 29.39zm-131.79 18.54v60.84h58.99c10.54 0 19.09-2.28 25.67-6.83 6.57-4.55 9.86-12.64 9.86-24.24 0-12.85-4.35-21.34-13.04-25.46-7.5-2.87-17.06-4.31-28.68-4.31h-52.8zm0 106.52v73.58h58.93c10.52 0 18.72-1.62 24.58-4.87 10.63-5.99 15.95-17.47 15.95-34.45 0-14.35-5.16-24.21-15.46-29.58-5.75-3-13.84-4.55-24.26-4.68h-59.74z" fill="#ffffff"/>
    </g>
</svg>
